<?xml version="1.0" encoding="utf-8"?>
<!-- Generator: Adobe Illustrator 19.0.1, SVG Export Plug-In . SVG Version: 6.00 Build 0)  -->
<svg version="1.1" id="Layer_1" xmlns="http://www.w3.org/2000/svg" xmlns:xlink="http://www.w3.org/1999/xlink" x="0px" y="0px"
	 viewBox="0 0 512 512" style="enable-background:new 0 0 512 512;" xml:space="preserve">
<style type="text/css">
	.st0{fill:#F7931A;}
	.st1{fill:#FFFFFF;}
	.st2{fill:none;stroke:#FFFFFF;stroke-width:3;stroke-miterlimit:10;}
</style>
<path class="st0" d="M256.5,496h-1C123.8,496,16,388.2,16,256.5v-1C16,123.8,123.8,16,255.5,16h1C388.2,16,496,123.8,496,255.5v1
	C496,388.2,388.2,496,256.5,496z"/>
<g>
	<path class="st1" d="M257,391.1l-23.1-5.8l9.3-38.2c-6-1.5-12.3-3.2-18.9-5.1l-9.1,38.5l-23.8-5.8l9.8-38.6L154,324l11.8-26.9
		c11.4,2.8,18,4.4,19.8,4.5c3.9,0,6.4-1.9,7.6-5.8l15.5-61.3c0.7,0,1.3,0.3,1.7,0.8h1l-2.7-1l11.3-45.2c0-6.2-3.8-10.4-11.3-12.6
		l-17.1-3.8l6.2-25.1l32,8v0.5l15.5,3l9.6-38.2l23.1,5.8l-8.8,37.4c6,1.5,12.3,3.1,18.7,4.9l9.1-37.7l23.6,5.8l-9.7,38.5
		c31.4,10.4,47.1,25.9,47.1,46.8c-1.6,24.6-11.6,38.4-29.9,41.4c16.5,7.2,24.7,19.1,24.7,35.9c0,6.2-1.2,13.1-3.6,20.6
		c-6.5,17.8-16.8,28.6-30.8,32.5c-6.9,1.8-14.6,2.7-22.9,2.7c-8.7,0-18.3-1-28.6-3L257,391.1z M274.3,321.7c4.6,0,10.1-0.7,16.5-2.1
		c6.4-1.4,10.8-6.4,13.1-15c0.5-2.2,0.8-4.2,0.8-6.2c0-16-17.9-27.5-53.8-34.5l-6.1-1.8l-12.8,52.1
		C250.4,319.2,264.5,321.7,274.3,321.7z M284.9,245c4.3,0,9.3-0.6,15-1.9c7.1-1.7,11.1-8.4,12-20.1c0-14.4-14.9-24.4-44.7-29.9
		c-2-0.2-3.6-0.5-4.8-1L251,238.5C263.7,242.8,275,245,284.9,245z"/>
</g>
<circle class="st2" cx="256" cy="256" r="228.5"/>
</svg>
